# xmcd CD database file
#
# Track frame offsets:
#	150
#	17074
#	85697
#	102345
#
# Disc length: 2347 seconds
#
# Revision: 0
# Processed by: cddbd v1.5.2PL0 Copyright (c) Steve Scherf et al.
# Submitted via: CDex 1.51
#
DISCID=23092904
DTITLE=Michal Urbaniak - Paratyphus B
DYEAR=1900
DGENRE=Jazz
TTITLE0=Paratyphus B
TTITLE1=Valium/Irena
TTITLE2=Winter Pieces
TTITLE3=Sound Pieces
EXTD=
EXTT0=
EXTT1=
EXTT2=
EXTT3=
PLAYORDER=
